<svg data-v-fde0c5aa="" xmlns="http://www.w3.org/2000/svg" viewBox="0 0 300 300" class="font"><!---->
    <defs data-v-fde0c5aa=""><!----></defs><!---->
    <defs data-v-fde0c5aa=""><!----></defs>
    <g data-v-fde0c5aa="" id="798620e0-4955-4305-b58b-096411c05766" fill=""
       transform="matrix(4.707896472396833,0,0,4.707896472396833,38.91718379170585,110.12411674410482)">
        <path d="M5.15 9.28L5.15 12.06L5.13 12.54L5.13 12.54Q5.13 13.07 5.43 13.21L5.43 13.21L5.43 13.21Q5.55 13.27 5.70 13.27L5.70 13.27L5.70 13.27Q5.94 13.27 6.19 13.16L6.19 13.16L6.19 13.16Q5.93 13.27 5.74 13.45L5.74 13.45L5.74 13.45Q5.55 13.62 5.35 13.79L5.35 13.79L5.35 13.79Q4.86 14.21 4.36 14.21L4.36 14.21L4.36 14.21Q3.86 14.21 3.83 13.63L3.83 13.63L3.83 13.63Q3.81 13.48 3.81 13.33L3.81 13.33L3.81 13.33Q2.58 14.18 1.56 14.18L1.56 14.18L1.56 14.18Q0.69 14.18 0.36 13.66L0.36 13.66L0.36 13.66Q0.23 13.47 0.23 13.13L0.23 13.13L0.23 13.13Q0.23 12.80 0.44 12.46L0.44 12.46L0.44 12.46Q0.64 12.12 0.96 11.84L0.96 11.84L0.96 11.84Q1.52 11.32 2.31 10.99L2.31 10.99L2.31 10.99Q2.90 10.73 3.82 10.70L3.82 10.70L3.82 10.40L3.82 10.40Q3.82 9.31 3.62 8.93L3.62 8.93L3.62 8.93Q3.42 8.54 3.11 8.36L3.11 8.36L3.11 8.36Q2.80 8.18 2.37 8.18L2.37 8.18L2.37 8.18Q1.65 8.18 1.11 8.46L1.11 8.46L1.11 8.46Q1.86 7.84 2.21 7.64L2.21 7.64L2.21 7.64Q2.93 7.24 3.51 7.24L3.51 7.24L3.51 7.24Q4.09 7.24 4.39 7.41L4.39 7.41L4.39 7.41Q4.68 7.58 4.85 7.86L4.85 7.86L4.85 7.86Q5.15 8.35 5.15 9.28L5.15 9.28ZM1.93 13.04L1.93 13.04L1.93 13.04Q2.10 13.16 2.32 13.21L2.32 13.21L2.32 13.21Q2.54 13.27 2.97 13.27L2.97 13.27L2.97 13.27Q3.40 13.27 3.82 13.06L3.82 13.06L3.82 11.63L2.71 11.63L2.71 11.63Q2.12 11.63 1.67 11.71L1.67 11.71L1.67 11.71Q1.59 12.00 1.59 12.27L1.59 12.27L1.59 12.27Q1.59 12.54 1.68 12.73L1.68 12.73L1.68 12.73Q1.77 12.92 1.93 13.04ZM8.67 2.41L8.67 8.57L8.67 8.57Q10.05 7.37 11.18 7.37L11.18 7.37L11.18 7.37Q12.35 7.37 12.99 8.29L12.99 8.29L12.99 8.29Q13.54 9.08 13.54 10.27L13.54 10.27L13.54 10.27Q13.54 11.19 12.95 12.14L12.95 12.14L12.95 12.14Q12.37 13.06 11.48 13.67L11.48 13.67L11.48 13.67Q10.54 14.30 9.63 14.30L9.63 14.30L9.63 14.30Q8.66 14.30 8.00 13.64L8.00 13.64L8.00 13.64Q7.34 12.98 7.34 12.01L7.34 12.01L7.34 5.24L7.34 5.24Q7.34 4.66 7.28 4.46L7.28 4.46L7.28 4.46Q7.14 4.03 6.72 4.03L6.72 4.03L6.72 4.03Q6.60 4.03 6.43 4.07L6.43 4.07L6.43 4.07Q6.26 4.11 6.15 4.13L6.15 4.13L6.15 4.13Q6.83 3.60 7.17 3.38L7.17 3.38L7.17 3.38Q7.51 3.15 7.89 2.89L7.89 2.89L7.89 2.89Q8.26 2.63 8.67 2.41L8.67 2.41ZM12.16 12.09L12.16 12.09L12.16 12.09Q12.23 11.68 12.23 11.18L12.23 11.18L12.23 11.18Q12.23 10.68 12.10 10.15L12.10 10.15L12.10 10.15Q11.98 9.63 11.70 9.21L11.70 9.21L11.70 9.21Q11.09 8.29 9.97 8.29L9.97 8.29L9.97 8.29Q9.37 8.29 9.00 8.85L9.00 8.85L9.00 8.85Q8.67 9.36 8.67 10.00L8.67 10.00L8.67 11.69L8.67 11.69Q8.67 12.46 9.22 12.95L9.22 12.95L9.22 12.95Q9.77 13.44 10.60 13.44L10.60 13.44L10.60 13.44Q11.94 13.44 12.16 12.09ZM25.48 8.38L25.48 8.38L25.48 8.38Q25.48 9.08 25.25 9.85L25.25 9.85L25.25 9.85Q25.01 10.62 24.59 11.32L24.59 11.32L24.59 11.32Q24.17 12.02 23.58 12.63L23.58 12.63L23.58 12.63Q23.00 13.24 22.32 13.69L22.32 13.69L22.32 13.69Q20.86 14.64 19.33 14.64L19.33 14.64L19.33 14.64Q17.18 14.64 15.92 13.38L15.92 13.38L15.92 13.38Q14.66 12.13 14.66 9.99L14.66 9.99L14.66 9.99Q14.66 8.37 15.55 6.95L15.55 6.95L15.55 6.95Q16.40 5.58 17.82 4.77L17.82 4.77L17.82 4.77Q19.26 3.94 20.89 3.94L20.89 3.94L20.89 3.94Q22.76 3.94 24.11 5.18L24.11 5.18L24.11 5.18Q25.48 6.45 25.48 8.38ZM24.15 9.47L24.15 9.47L24.15 9.47Q24.15 8.52 23.82 7.66L23.82 7.66L23.82 7.66Q23.49 6.79 22.88 6.18L22.88 6.18L22.88 6.18Q21.61 4.90 19.50 4.90L19.50 4.90L19.50 4.90Q16.74 4.90 16.17 7.22L16.17 7.22L16.17 7.22Q15.99 7.95 15.99 8.96L15.99 8.96L15.99 8.96Q15.99 9.96 16.30 10.86L16.30 10.86L16.30 10.86Q16.61 11.76 17.21 12.40L17.21 12.40L17.21 12.40Q18.47 13.73 20.69 13.73L20.69 13.73L20.69 13.73Q22.46 13.73 23.36 12.50L23.36 12.50L23.36 12.50Q24.15 11.42 24.15 9.47ZM29.72 13.23L29.72 13.23L29.72 13.23Q29.50 13.41 29.29 13.59L29.29 13.59L29.29 13.59Q29.09 13.77 28.87 13.90L28.87 13.90L28.87 13.90Q28.38 14.22 27.86 14.22L27.86 14.22L27.86 14.22Q27.11 14.22 27.04 13.18L27.04 13.18L27.04 13.18Q27.03 12.90 27.03 12.63L27.03 12.63L27.03 5.32L27.03 5.32Q27.03 4.38 26.61 4.10L26.61 4.10L26.61 4.10Q26.43 3.98 26.26 3.98L26.26 3.98L26.26 3.98Q26.04 3.98 25.97 3.99L25.97 3.99L25.97 3.99Q25.89 4.00 25.84 4.01L25.84 4.01L25.84 4.01Q26.82 3.32 27.08 3.19L27.08 3.19L27.08 3.19Q27.43 3.00 27.79 2.82L27.79 2.82L27.79 2.82Q28.16 2.64 28.36 2.54L28.36 2.54L28.36 11.97L28.36 11.97Q28.36 12.25 28.36 12.49L28.36 12.49L28.36 12.49Q28.36 12.73 28.44 12.91L28.44 12.91L28.44 12.91Q28.61 13.28 29.30 13.28L29.30 13.28L29.30 13.28Q29.52 13.28 29.72 13.23ZM30.91 3.41L32.24 2.48L32.28 3.26L32.28 3.62L32.28 3.62Q32.28 3.94 32.20 4.02L32.20 4.02L32.20 4.02Q32.12 4.09 32.02 4.16L32.02 4.16L32.02 4.16Q31.64 4.43 30.91 4.89L30.91 4.89L30.91 4.89Q30.95 4.21 30.95 4.19L30.95 4.19L30.95 4.19Q30.95 4.16 30.91 3.41L30.91 3.41ZM33.67 13.24L33.67 13.24L33.67 13.24Q33.46 13.41 33.27 13.58L33.27 13.58L33.27 13.58Q33.07 13.75 32.86 13.89L32.86 13.89L32.86 13.89Q32.37 14.21 31.92 14.21L31.92 14.21L31.92 14.21Q31.49 14.21 31.32 14.08L31.32 14.08L31.32 14.08Q30.97 13.82 30.97 13.13L30.97 13.13L30.97 9.88L30.97 9.88Q30.97 9.15 30.71 8.93L30.71 8.93L30.71 8.93Q30.58 8.83 30.44 8.83L30.44 8.83L30.44 8.83Q30.30 8.83 30.20 8.84L30.20 8.84L30.20 8.84Q30.10 8.86 30.00 8.88L30.00 8.88L30.00 8.88Q29.89 8.90 29.78 8.92L29.78 8.92L29.78 8.92Q30.13 8.65 30.42 8.44L30.42 8.44L30.42 8.44Q30.72 8.23 30.93 8.09L30.93 8.09L30.93 8.09Q31.14 7.94 31.52 7.68L31.52 7.68L31.52 7.68Q31.90 7.42 32.30 7.21L32.30 7.21L32.30 12.03L32.30 12.03Q32.30 12.73 32.39 12.91L32.39 12.91L32.39 12.91Q32.58 13.29 33.24 13.29L33.24 13.29L33.24 13.29Q33.41 13.29 33.67 13.24ZM37.15 8.78L37.15 8.78L37.15 8.78Q37.28 8.68 37.28 8.57L37.28 8.57L37.28 8.57Q37.28 8.46 37.15 8.40L37.15 8.40L37.15 8.40Q37.02 8.34 36.85 8.31L36.85 8.31L36.85 8.31Q36.58 8.25 36.35 8.25L36.35 8.25L36.35 8.25Q36.12 8.25 35.99 8.27L35.99 8.27L35.99 8.27Q35.87 8.30 35.78 8.36L35.78 8.36L35.78 8.36Q35.59 8.49 35.59 8.82L35.59 8.82L35.59 8.82Q35.59 9.15 35.73 9.35L35.73 9.35L35.73 9.35Q35.88 9.56 36.11 9.71L36.11 9.71L36.11 9.71Q36.35 9.85 36.65 9.95L36.65 9.95L36.65 9.95Q36.95 10.04 37.26 10.13L37.26 10.13L37.26 10.13Q37.57 10.23 37.87 10.34L37.87 10.34L37.87 10.34Q38.17 10.45 38.40 10.62L38.40 10.62L38.40 10.62Q38.93 11.01 38.93 11.68L38.93 11.68L38.93 11.68Q38.93 12.34 38.29 12.97L38.29 12.97L38.29 12.97Q37.75 13.51 36.87 13.89L36.87 13.89L36.87 13.89Q36.05 14.25 35.41 14.25L35.41 14.25L35.41 14.25Q34.63 14.25 34.16 13.92L34.16 13.92L34.16 13.92Q33.99 13.79 33.99 13.60L33.99 13.60L33.99 13.60Q33.99 13.41 34.17 13.24L34.17 13.24L34.17 13.24Q34.34 13.08 34.58 12.94L34.58 12.94L34.58 12.94Q34.82 12.80 35.06 12.68L35.06 12.68L35.06 12.68Q35.30 12.55 35.42 12.41L35.42 12.41L35.42 12.41Q35.30 12.54 35.30 12.71L35.30 12.71L35.30 12.71Q35.30 12.89 35.49 13.01L35.49 13.01L35.49 13.01Q35.68 13.13 35.94 13.19L35.94 13.19L35.94 13.19Q36.39 13.30 36.81 13.30L36.81 13.30L36.81 13.30Q37.23 13.30 37.42 13.15L37.42 13.15L37.42 13.15Q37.60 13.00 37.60 12.63L37.60 12.63L37.60 12.63Q37.60 12.27 37.46 12.04L37.46 12.04L37.46 12.04Q37.32 11.81 37.08 11.65L37.08 11.65L37.08 11.65Q36.85 11.48 36.55 11.37L36.55 11.37L36.55 11.37Q36.25 11.26 35.94 11.15L35.94 11.15L35.94 11.15Q35.63 11.05 35.33 10.94L35.33 10.94L35.33 10.94Q35.03 10.83 34.79 10.67L34.79 10.67L34.79 10.67Q34.28 10.32 34.28 9.76L34.28 9.76L34.28 9.76Q34.28 9.23 34.90 8.62L34.90 8.62L34.90 8.62Q35.45 8.10 36.05 7.81L36.05 7.81L36.05 7.81Q37.06 7.31 37.58 7.31L37.58 7.31L37.58 7.31Q38.12 7.31 38.36 7.43L38.36 7.43L38.36 7.43Q38.60 7.55 38.60 7.63L38.60 7.63L38.60 7.63Q38.60 7.72 38.55 7.79L38.55 7.79L38.55 7.79Q38.49 7.85 38.41 7.91L38.41 7.91L38.41 7.91Q38.34 7.97 38.25 8.02L38.25 8.02L38.25 8.02Q38.17 8.07 38.02 8.16L38.02 8.16L38.02 8.16Q37.87 8.26 37.62 8.42L37.62 8.42L37.62 8.42Q37.37 8.58 37.15 8.78ZM41.72 10.53L41.72 12.59L41.72 12.59Q41.72 13.28 42.12 13.28L42.12 13.28L42.12 13.28Q42.25 13.28 42.53 13.16L42.53 13.16L42.53 13.16Q42.27 13.75 41.73 14.05L41.73 14.05L41.73 14.05Q41.46 14.21 41.15 14.19L41.15 14.19L41.15 14.19Q40.84 14.18 40.71 14.03L40.71 14.03L40.71 14.03Q40.58 13.88 40.50 13.67L40.50 13.67L40.50 13.67Q40.39 13.33 40.39 12.80L40.39 12.80L40.39 5.00L40.39 5.00Q40.39 4.27 40.14 4.03L40.14 4.03L40.14 4.03Q40.02 3.92 39.85 3.92L39.85 3.92L39.85 3.92Q39.55 3.92 39.20 4.02L39.20 4.02L39.20 4.02Q40.04 3.36 41.72 2.30L41.72 2.30L41.72 8.57L41.72 8.57Q42.57 7.82 43.47 7.55L43.47 7.55L43.47 7.55Q43.80 7.44 44.11 7.44L44.11 7.44L44.11 7.44Q44.41 7.44 44.69 7.54L44.69 7.54L44.69 7.54Q44.97 7.64 45.19 7.82L45.19 7.82L45.19 7.82Q45.67 8.22 45.67 8.83L45.67 8.83L45.67 12.30L45.67 12.30Q45.67 13.21 46.11 13.30L46.11 13.30L46.11 13.30Q46.23 13.33 46.37 13.33L46.37 13.33L46.37 13.33Q46.58 13.33 46.96 13.16L46.96 13.16L46.96 13.16Q46.40 13.88 45.64 14.11L45.64 14.11L45.64 14.11Q45.38 14.19 45.09 14.19L45.09 14.19L45.09 14.19Q44.79 14.19 44.63 14.05L44.63 14.05L44.63 14.05Q44.46 13.90 44.40 13.69L44.40 13.69L44.40 13.69Q44.34 13.47 44.34 13.21L44.34 13.21L44.34 10.14L44.34 10.14Q44.34 9.10 44.02 8.74L44.02 8.74L44.02 8.74Q43.72 8.39 42.93 8.39L42.93 8.39L42.93 8.39Q41.87 8.39 41.75 9.84L41.75 9.84L41.75 9.84Q41.72 10.21 41.72 10.53L41.72 10.53Z"></path>
    </g><!----><!---->
</svg>