<svg id="Layer_1" data-name="Layer 1" xmlns="http://www.w3.org/2000/svg" viewBox="0 0 300 116.69"><g id="_798620e0-4955-4305-b58b-096411c05766" data-name="798620e0-4955-4305-b58b-096411c05766"><path d="M45.77,62.92V78.63l-.11,2.71h0c0,2,.56,3.26,1.69,3.79h0a3.31,3.31,0,0,0,1.53.34h0a6.93,6.93,0,0,0,2.77-.62h0a8.4,8.4,0,0,0-2.55,1.64h0c-.71.64-1.45,1.28-2.2,1.92h0a8.61,8.61,0,0,1-5.59,2.37h0q-2.84,0-3-3.28h0a13.7,13.7,0,0,1-.11-1.69h0c-4.64,3.2-8.87,4.8-12.72,4.8h0q-4.9,0-6.78-2.94h0a5.22,5.22,0,0,1-.73-3h0a7.1,7.1,0,0,1,1.19-3.79h0a14.18,14.18,0,0,1,2.93-3.5h0a25.78,25.78,0,0,1,7.63-4.81h0A23.34,23.34,0,0,1,38.25,71h0v-1.7h0c0-4.11-.37-6.87-1.13-8.31h0a7.55,7.55,0,0,0-2.88-3.22h0a8.27,8.27,0,0,0-4.18-1h0a15.22,15.22,0,0,0-7.12,1.58h0a52.89,52.89,0,0,1,6.22-4.64h0a15.5,15.5,0,0,1,7.34-2.26h0a10.31,10.31,0,0,1,5,1h0a7.47,7.47,0,0,1,2.6,2.55h0c1.13,1.84,1.69,4.52,1.69,8ZM27.57,84.17h0a6.29,6.29,0,0,0,2.21,1h0a14.69,14.69,0,0,0,3.67.34h0a10.64,10.64,0,0,0,4.8-1.19h0V76.2H32a33.94,33.94,0,0,0-5.87.45h0a11.63,11.63,0,0,0-.46,3.17h0a6,6,0,0,0,.51,2.6h0A4.67,4.67,0,0,0,27.57,84.17ZM65.66,24.1V58.91h0q7.8-6.78,14.19-6.78h0a11.72,11.72,0,0,1,10.22,5.2h0a19.11,19.11,0,0,1,3.11,11.19h0a20,20,0,0,1-3.33,10.56h0a29.43,29.43,0,0,1-8.31,8.65h0a18.78,18.78,0,0,1-10.45,3.56h0a12.48,12.48,0,0,1-9.21-3.73h0a12.51,12.51,0,0,1-3.73-9.21h0V40.09h0a18.8,18.8,0,0,0-.34-4.41h0a3.12,3.12,0,0,0-3.17-2.42h0a7.35,7.35,0,0,0-1.64.22h0c-.64.15-1.16.26-1.58.34h0q3.84-3,5.77-4.24h0c1.28-.86,2.63-1.79,4.06-2.77h0a44.45,44.45,0,0,1,4.41-2.71ZM85.38,78.8h0a30,30,0,0,0,.4-5.14h0A24.31,24.31,0,0,0,85,67.84h0a15.76,15.76,0,0,0-2.26-5.31h0A11,11,0,0,0,73,57.33h0a6.31,6.31,0,0,0-5.48,3.16h0A11.66,11.66,0,0,0,65.66,67h0v9.55h0a9.12,9.12,0,0,0,3.11,7.12h0a11.27,11.27,0,0,0,7.8,2.77h0Q84.15,86.43,85.38,78.8Zm75.27-21h0a28.89,28.89,0,0,1-1.3,8.3h0a38.19,38.19,0,0,1-3.73,8.31h0a40.83,40.83,0,0,1-5.7,7.4h0a41.06,41.06,0,0,1-7.12,6h0a30.65,30.65,0,0,1-16.9,5.37h0q-12.15,0-19.27-7.12h0Q99.51,79,99.51,66.93h0a31.76,31.76,0,0,1,5-17.17h0a35.51,35.51,0,0,1,12.83-12.32h0a34.11,34.11,0,0,1,17.34-4.69h0a26,26,0,0,1,18.2,7h0A23.63,23.63,0,0,1,160.65,57.84ZM153.14,64h0a28.38,28.38,0,0,0-1.87-10.23h0A23.32,23.32,0,0,0,146,45.4h0q-7.17-7.23-19.1-7.23h0q-15.6,0-18.82,13.11h0a41.45,41.45,0,0,0-1,9.83h0a32.68,32.68,0,0,0,1.75,10.74h0a24,24,0,0,0,5.14,8.7h0q7.13,7.52,19.66,7.52h0q10,0,15.09-6.95h0Q153.14,75,153.14,64Zm31.47,21.24h0q-1.25,1-2.43,2h0A14.47,14.47,0,0,1,179.81,89h0a10.37,10.37,0,0,1-5.71,1.81h0c-2.82,0-4.37-2-4.63-5.88h0c0-1-.06-2.09-.06-3.11h0V40.54h0c0-3.54-.79-5.83-2.37-6.89h0a3.6,3.6,0,0,0-2-.68h0a13.78,13.78,0,0,0-1.64.06h0c-.3,0-.55.07-.73.11h0a80.41,80.41,0,0,1,7-4.63h0c1.32-.72,2.66-1.41,4-2.09h0l3.22-1.58h0V78.12h0v2.94h0a5.76,5.76,0,0,0,.45,2.37h0q1,2.1,4.86,2.1h0A9.62,9.62,0,0,0,184.61,85.24Zm6.73-55.49,7.51-5.25.23,4.4v2h0a3.6,3.6,0,0,1-.45,2.26h0c-.31.26-.65.53-1,.79h0q-2.15,1.53-6.27,4.12h0c.15-2.56.22-3.88.22-4h0c0-.11-.07-1.58-.22-4.41ZM206.93,85.3h0c-.79.64-1.54,1.28-2.26,1.92h0A23.89,23.89,0,0,1,202.35,89h0A9.7,9.7,0,0,1,197,90.78h0a5.79,5.79,0,0,1-3.39-.73h0q-2-1.47-2-5.37h0V66.31h0c0-2.75-.48-4.54-1.46-5.37h0a2.51,2.51,0,0,0-1.53-.56h0a13.18,13.18,0,0,0-1.36.06h0l-1.13.22h0l-1.24.23h0c1.32-1,2.52-1.92,3.62-2.71h0q1.69-1.2,2.88-2h0c.79-.57,1.9-1.34,3.33-2.32h0a45.27,45.27,0,0,1,4.41-2.66h0V78.46h0c0,2.64.17,4.3.51,5h0c.71,1.44,2.32,2.15,4.8,2.15h0A13.18,13.18,0,0,0,206.93,85.3ZM226.6,60.1h0a1.56,1.56,0,0,0,.73-1.19h0a1.06,1.06,0,0,0-.73-1h0a6.66,6.66,0,0,0-1.7-.51h0a12.86,12.86,0,0,0-2.82-.34h0a15.12,15.12,0,0,0-2,.11h0a4,4,0,0,0-1.18.51h0a2.92,2.92,0,0,0-1.08,2.6h0a5.2,5.2,0,0,0,.79,3h0a7.88,7.88,0,0,0,2.15,2h0a16.14,16.14,0,0,0,3.05,1.36h0l3.45,1h0c1.17.37,2.32.77,3.45,1.18h0a12.11,12.11,0,0,1,3,1.58h0a7,7,0,0,1,3,6h0q0,3.73-3.62,7.29h0a25.4,25.4,0,0,1-8,5.2h0a20.79,20.79,0,0,1-8.25,2h0a12.09,12.09,0,0,1-7.06-1.87h0a2.2,2.2,0,0,1-1-1.81h0a2.8,2.8,0,0,1,1-2h0a13,13,0,0,1,2.31-1.7h0c.91-.52,1.81-1,2.72-1.47h0a7.09,7.09,0,0,0,2-1.52h0a2.42,2.42,0,0,0-.68,1.69h0a2,2,0,0,0,1.08,1.7h0a8.23,8.23,0,0,0,2.54,1h0a20.85,20.85,0,0,0,4.92.62h0a5.52,5.52,0,0,0,3.44-.85h0a3.63,3.63,0,0,0,1-2.94h0a6.29,6.29,0,0,0-.79-3.33h0a7.07,7.07,0,0,0-2.15-2.21h0a12.11,12.11,0,0,0-3-1.58h0c-1.13-.41-2.28-.83-3.45-1.24h0c-1.17-.38-2.32-.77-3.45-1.19h0a14.48,14.48,0,0,1-3.05-1.52h0a6,6,0,0,1-2.88-5.15h0q0-3,3.5-6.44h0a25.76,25.76,0,0,1,6.5-4.57h0q5.72-2.84,8.65-2.83h0a10.49,10.49,0,0,1,4.4.68h0c.91.45,1.36.83,1.36,1.13h0a1.48,1.48,0,0,1-.28.9h0a7.93,7.93,0,0,1-.79.68h0a5.59,5.59,0,0,1-.91.62h0l-1.3.79h0c-.56.38-1.32.87-2.26,1.47h0A19.26,19.26,0,0,0,226.6,60.1ZM252.42,70V81.63h0q0,3.9,2.26,3.9h0a6.92,6.92,0,0,0,2.32-.68h0a10.38,10.38,0,0,1-4.52,5h0a5.66,5.66,0,0,1-3.28.79h0a3.29,3.29,0,0,1-2.49-.91h0a6.61,6.61,0,0,1-1.18-2h0a16.11,16.11,0,0,1-.62-4.92h0V38.74h0c0-2.75-.48-4.58-1.42-5.48h0a2.32,2.32,0,0,0-1.64-.63h0a13.31,13.31,0,0,0-3.67.57h0q4.75-3.74,14.24-9.72h0V58.91h0a26.42,26.42,0,0,1,9.89-5.76h0a11.27,11.27,0,0,1,3.62-.63h0a9.54,9.54,0,0,1,3.27.57h0A9.43,9.43,0,0,1,272,54.67h0a7.12,7.12,0,0,1,2.71,5.71h0V80h0q0,5.15,2.49,5.65h0a6.18,6.18,0,0,0,1.47.17h0a9,9,0,0,0,3.33-1h0a14.88,14.88,0,0,1-7.46,5.37h0a10.54,10.54,0,0,1-3.11.45h0a3.84,3.84,0,0,1-2.59-.79h0a4.15,4.15,0,0,1-1.3-2h0a10.11,10.11,0,0,1-.34-2.71h0V67.78h0c0-3.92-.61-6.55-1.81-7.91h0c-1.13-1.32-3.19-2-6.16-2h0q-6,0-6.67,8.2h0c-.11,1.39-.17,2.69-.17,3.9Z"/></g></svg>